<svg xmlns="http://www.w3.org/2000/svg" viewBox="0 0 800 800"><defs><radialGradient id="bg"><stop stop-color="#3b2947"/><stop offset="1" stop-color="#080a10"/></radialGradient><linearGradient id="hair" x1="0" x2="1"><stop stop-color="#171118"/><stop offset=".5" stop-color="#39232b"/><stop offset="1" stop-color="#120e15"/></linearGradient></defs><rect width="800" height="800" fill="url(#bg)"/><circle cx="400" cy="310" r="205" fill="#f4c4b5"/><path d="M190 330Q170 95 400 80Q630 95 610 330Q590 150 400 145Q210 150 190 330Z" fill="url(#hair)"/><path d="M190 300Q135 610 245 735L330 650Q225 500 270 275Z" fill="url(#hair)"/><path d="M610 300Q665 610 555 735L470 650Q575 500 530 275Z" fill="url(#hair)"/><ellipse cx="325" cy="325" rx="25" ry="31" fill="#39251e"/><ellipse cx="475" cy="325" rx="25" ry="31" fill="#39251e"/><circle cx="332" cy="316" r="7" fill="#fff"/><circle cx="482" cy="316" r="7" fill="#fff"/><path d="M330 430Q400 480 470 430" fill="none" stroke="#b65e69" stroke-width="12" stroke-linecap="round"/><path d="M175 260Q165 105 250 85L270 245Z" fill="#f1f3f6" opacity=".9"/><path d="M625 260Q635 105 550 85L530 245Z" fill="#f1f3f6" opacity=".9"/><rect x="130" y="150" width="75" height="260" rx="38" fill="#f1f3f6" opacity=".9"/><rect x="595" y="150" width="75" height="260" rx="38" fill="#f1f3f6" opacity=".9"/><path d="M275 620Q400 550 525 620L590 800H210Z" fill="#15161d"/><text x="400" y="755" text-anchor="middle" fill="#fff" font-family="sans-serif" font-size="28">SARA AI</text></svg>